<?xml version="1.0" encoding="UTF-8" standalone="no"?>
<!-- Created with Inkscape (http://www.inkscape.org/) -->

<svg
   xmlns:dc="http://purl.org/dc/elements/1.1/"
   xmlns:cc="http://creativecommons.org/ns#"
   xmlns:rdf="http://www.w3.org/1999/02/22-rdf-syntax-ns#"
   xmlns:svg="http://www.w3.org/2000/svg"
   xmlns="http://www.w3.org/2000/svg"
   xmlns:sodipodi="http://sodipodi.sourceforge.net/DTD/sodipodi-0.dtd"
   xmlns:inkscape="http://www.inkscape.org/namespaces/inkscape"
   version="1.1"
   id="svg10"
   xml:space="preserve"
   width="107.67452"
   height="151.67139"
   viewBox="0 0 107.67452 151.67139"
   sodipodi:docname="css-logo.svg"
   inkscape:version="0.92.4 (5da689c313, 2019-01-14)"><metadata
     id="metadata16"><rdf:RDF><cc:Work
         rdf:about=""><dc:format>image/svg+xml</dc:format><dc:type
           rdf:resource="http://purl.org/dc/dcmitype/StillImage" /><dc:title /></cc:Work></rdf:RDF></metadata><defs
     id="defs14"><clipPath
       clipPathUnits="userSpaceOnUse"
       id="clipPath46"><path
         d="M 0,141.732 H 141.732 V 0 H 0 Z"
         id="path44"
         inkscape:connector-curvature="0" /></clipPath></defs><sodipodi:namedview
     pagecolor="#ffffff"
     bordercolor="#666666"
     borderopacity="1"
     objecttolerance="10"
     gridtolerance="10"
     guidetolerance="10"
     inkscape:pageopacity="0"
     inkscape:pageshadow="2"
     inkscape:window-width="1920"
     inkscape:window-height="1057"
     id="namedview12"
     showgrid="false"
     inkscape:zoom="4.5402592"
     inkscape:cx="18.517817"
     inkscape:cy="87.448375"
     inkscape:window-x="-8"
     inkscape:window-y="-8"
     inkscape:window-maximized="1"
     inkscape:current-layer="g3013" /><g
     inkscape:groupmode="layer"
     id="layer1"
     inkscape:label="Background"
     transform="translate(-0.34467391,-4.5152471)" /><g
     inkscape:groupmode="layer"
     id="layer4"
     inkscape:label="CSS Logo"
     style="display:inline"
     transform="translate(-39.078802,-31.610271)"><g
       transform="matrix(0.29684154,0,0,0.29684154,-18.399516,-50.736993)"
       id="layer1-8"
       inkscape:label="Calque 1"><g
         transform="translate(119,276.3622)"
         id="g3013"><polygon
           style="fill:#593c8f;fill-opacity:1"
           points="107.644,470.877 74.633,100.62 437.367,100.62 404.321,470.819 255.778,512 "
           id="polygon2989" /><polygon
           style="fill:#684d99;fill-opacity:1"
           points="376.03,447.246 404.27,130.894 256,130.894 256,480.523 "
           id="polygon2991" /><g
           id="g6133"
           style="fill:#d9ded8;fill-opacity:1"><polygon
             id="polygon2993"
             points="150.31,268.217 154.38,313.627 256,313.627 256,268.217 "
             style="fill:#d9ded8;fill-opacity:1" /><polygon
             id="polygon2995"
             points="146.26,221.716 256,221.716 256,176.305 255.843,176.305 142.132,176.305 "
             style="fill:#d9ded8;fill-opacity:1" /><polygon
             id="polygon2997"
             points="156.409,336.333 162.771,407.634 255.791,433.457 256,433.399 256,386.153 255.801,386.206 205.227,372.55 201.994,336.333 177.419,336.333 "
             style="fill:#d9ded8;fill-opacity:1" /></g><g
           id="g6128"
           transform="matrix(0.98500965,0,0,0.98500965,3.7972819,1.0493242)"
           style="fill:#593c8f;fill-opacity:1"><path
             style="fill:#593c8f;fill-opacity:1;stroke-width:1.0134418"
             id="path2999"
             d="m 159.63035,0 h 55.7393 v 23.30916 h -32.43014 v 23.30916 h 32.43014 v 23.30916 h -55.7393 z"
             inkscape:connector-curvature="0" /><path
             id="path3001"
             d="m 226,0 h 55 v 20 h -32 v 4 h 32 V 70 H 226 V 49 h 32 v -4 h -32 z"
             inkscape:connector-curvature="0"
             style="fill:#593c8f;fill-opacity:1" /><path
             id="path3003"
             d="m 292,0 h 55 v 20 h -32 v 4 h 32 V 70 H 292 V 49 h 32 v -4 h -32 z"
             inkscape:connector-curvature="0"
             style="fill:#593c8f;fill-opacity:1" /></g><polygon
           style="fill:#eff5ee;fill-opacity:1"
           points="255.843,433.435 348.937,407.634 349.62,399.962 360.291,280.411 361.399,268.217 369.597,176.305 255.843,176.305 255.843,221.716 319.831,221.716 315.699,268.217 255.843,268.217 255.843,313.627 311.761,313.627 306.49,372.521 255.843,386.191 "
           id="polygon3005" /></g></g></g></svg>