<?xml version="1.0" encoding="UTF-8" standalone="no"?>
<!-- Created with Inkscape (http://www.inkscape.org/) -->

<svg
   xmlns:dc="http://purl.org/dc/elements/1.1/"
   xmlns:cc="http://creativecommons.org/ns#"
   xmlns:rdf="http://www.w3.org/1999/02/22-rdf-syntax-ns#"
   xmlns:svg="http://www.w3.org/2000/svg"
   xmlns="http://www.w3.org/2000/svg"
   xmlns:sodipodi="http://sodipodi.sourceforge.net/DTD/sodipodi-0.dtd"
   xmlns:inkscape="http://www.inkscape.org/namespaces/inkscape"
   version="1.1"
   id="svg10"
   xml:space="preserve"
   width="122.87029"
   height="122.87029"
   viewBox="0 0 122.87029 122.8703"
   sodipodi:docname="figma-logo.svg"
   inkscape:version="0.92.4 (5da689c313, 2019-01-14)"><metadata
     id="metadata16"><rdf:RDF><cc:Work
         rdf:about=""><dc:format>image/svg+xml</dc:format><dc:type
           rdf:resource="http://purl.org/dc/dcmitype/StillImage" /><dc:title></dc:title></cc:Work></rdf:RDF></metadata><defs
     id="defs14"><clipPath
       clipPathUnits="userSpaceOnUse"
       id="clipPath46"><path
         d="M 0,141.732 H 141.732 V 0 H 0 Z"
         id="path44"
         inkscape:connector-curvature="0" /></clipPath></defs><sodipodi:namedview
     pagecolor="#ffffff"
     bordercolor="#666666"
     borderopacity="1"
     objecttolerance="10"
     gridtolerance="10"
     guidetolerance="10"
     inkscape:pageopacity="0"
     inkscape:pageshadow="2"
     inkscape:window-width="1920"
     inkscape:window-height="1057"
     id="namedview12"
     showgrid="false"
     inkscape:zoom="3.2104481"
     inkscape:cx="-1.8153643"
     inkscape:cy="61.191594"
     inkscape:window-x="1072"
     inkscape:window-y="827"
     inkscape:window-maximized="1"
     inkscape:current-layer="layer2" /><g
     inkscape:groupmode="layer"
     id="layer1"
     inkscape:label="Background"
     transform="translate(-13.225169,-18.760058)" /><g
     inkscape:groupmode="layer"
     id="layer2"
     inkscape:label="Figma Logo"
     transform="translate(-51.959297,-45.855082)"><g
       id="g871"
       transform="matrix(15.998736,0,0,15.998736,51.959297,45.855076)"><path
         id="path848"
         d="M 2.56,7.68 A 1.28,1.28 0 0 0 3.84,6.4 V 5.12 H 2.56 a 1.28,1.28 0 0 0 0,2.56 z"
         inkscape:connector-curvature="0"
         style="fill:#345b59;fill-opacity:1" /><path
         id="path850"
         d="M 1.28,3.84 A 1.28,1.28 0 0 1 2.56,2.56 H 3.84 V 5.12 H 2.56 A 1.28,1.28 0 0 1 1.28,3.84 Z"
         inkscape:connector-curvature="0"
         style="fill:#593c8f;fill-opacity:1" /><path
         id="path852"
         d="M 1.28,1.28 A 1.28,1.28 0 0 1 2.559,0 h 1.28 V 2.56 H 2.56 A 1.28,1.28 0 0 1 1.28,1.28 Z"
         inkscape:connector-curvature="0"
         style="fill:#db5461;fill-opacity:1" /><path
         id="path854"
         d="m 3.84,0 h 1.28 a 1.28,1.28 0 0 1 0,2.56 H 3.84 Z"
         inkscape:connector-curvature="0"
         style="fill:#e4828c;fill-opacity:1" /><path
         id="path856"
         d="m 6.4,3.84 a 1.28,1.28 0 0 1 -2.56,0 1.28,1.28 0 0 1 2.56,0 z"
         inkscape:connector-curvature="0"
         style="fill:#eafdfc;fill-opacity:1" /></g></g></svg>