<?xml version="1.0" encoding="UTF-8" standalone="no"?>
<!-- Created with Inkscape (http://www.inkscape.org/) -->

<svg
   xmlns:dc="http://purl.org/dc/elements/1.1/"
   xmlns:cc="http://creativecommons.org/ns#"
   xmlns:rdf="http://www.w3.org/1999/02/22-rdf-syntax-ns#"
   xmlns:svg="http://www.w3.org/2000/svg"
   xmlns="http://www.w3.org/2000/svg"
   xmlns:sodipodi="http://sodipodi.sourceforge.net/DTD/sodipodi-0.dtd"
   xmlns:inkscape="http://www.inkscape.org/namespaces/inkscape"
   version="1.1"
   id="svg10"
   xml:space="preserve"
   width="126.18061"
   height="123.02609"
   viewBox="0 0 126.18061 123.0261"
   sodipodi:docname="illustrator-logo.svg"
   inkscape:version="0.92.4 (5da689c313, 2019-01-14)"><metadata
     id="metadata16"><rdf:RDF><cc:Work
         rdf:about=""><dc:format>image/svg+xml</dc:format><dc:type
           rdf:resource="http://purl.org/dc/dcmitype/StillImage" /><dc:title /></cc:Work></rdf:RDF></metadata><defs
     id="defs14"><clipPath
       clipPathUnits="userSpaceOnUse"
       id="clipPath46"><path
         d="M 0,141.732 H 141.732 V 0 H 0 Z"
         id="path44"
         inkscape:connector-curvature="0" /></clipPath><radialGradient
       gradientUnits="userSpaceOnUse"
       r="143.42999"
       cy="81.290001"
       cx="97.709999"
       id="New_Gradient_Swatch_16"><stop
         id="stop1026"
         stop-opacity="0.85"
         stop-color="#360100"
         offset="0"
         style="stop-color:#593c8f;stop-opacity:0.8509804" /><stop
         id="stop1028"
         stop-color="#360100"
         offset="0.77"
         style="stop-color:#593c8f;stop-opacity:1" /></radialGradient></defs><sodipodi:namedview
     pagecolor="#ffffff"
     bordercolor="#666666"
     borderopacity="1"
     objecttolerance="10"
     gridtolerance="10"
     guidetolerance="10"
     inkscape:pageopacity="0"
     inkscape:pageshadow="2"
     inkscape:window-width="1920"
     inkscape:window-height="1057"
     id="namedview12"
     showgrid="false"
     inkscape:zoom="6.4208962"
     inkscape:cx="58.814377"
     inkscape:cy="60.776553"
     inkscape:window-x="1072"
     inkscape:window-y="827"
     inkscape:window-maximized="1"
     inkscape:current-layer="layer1" /><g
     inkscape:groupmode="layer"
     id="layer1"
     inkscape:label="Background"
     transform="translate(8.853319,-18.735701)"
     style="display:inline" /><g
     inkscape:groupmode="layer"
     id="layer4"
     inkscape:label="Illustrator Logo"
     style="display:inline"
     transform="translate(-29.880809,-45.830725)"><g
       id="g1052"
       transform="matrix(0.52575253,0,0,0.52575253,29.880809,45.830725)"><rect
         id="rect1035"
         style="fill:#593c8f;fill-opacity:1"
         height="214"
         width="220"
         y="10"
         x="10" /><path
         id="path1037"
         style="fill:#eef4ed;fill-opacity:1;fill-rule:evenodd"
         d="M 0,0 V 234 H 240 V 0 Z M 10,10 H 230 V 224 H 10 Z"
         inkscape:connector-curvature="0" /><path
         id="path1039"
         style="fill:#eef4ed;fill-opacity:1;fill-rule:evenodd"
         d="m 83.25,132.5 -7.92,30 c -0.16,0.83 -0.49,1 -1.48,1 H 59.16 c -1,0 -1.15,-0.33 -1,-1.48 L 86.55,62.57 c 0.5,-1.82 0.83,-3.38 1,-8.33 0,-0.66 0.33,-1 0.83,-1 h 20.95 c 0.66,0 1,0.16 1.16,1 l 31.84,107.94 c 0.17,0.82 0,1.32 -0.82,1.32 H 125 c -0.83,0 -1.32,-0.19 -1.49,-0.85 l -8.25,-30.15 z m 27.89,-16.25 c -2.81,-11.06 -9.41,-35.29 -11.88,-47 H 99.09 C 97,81 91.67,100.74 87.54,116.25 Z m 45,-55.58 c 0,-6.43 4.46,-10.23 10.23,-10.23 6.11,0 10.23,4.13 10.23,10.23 0,6.6 -4.29,10.23 -10.39,10.23 -5.95,0 -10.08,-3.63 -10.08,-10.23 z m 1.12,22.73 c 0,-0.82 0.33,-1.15 1.16,-1.15 h 15.68 c 0.82,0 1.15,0.33 1.15,1.15 v 78.94 c 0,0.83 -0.16,1.16 -1.15,1.16 h -15.53 c -1,0 -1.32,-0.5 -1.32,-1.32 z"
         inkscape:connector-curvature="0" /></g></g><style
     id="style967"
     type="text/css">
	.st0{fill:#001D26;}
	.st1{fill:#00C8FF;}
</style></svg>