<?xml version="1.0" encoding="UTF-8" standalone="no"?>
<!-- Created with Inkscape (http://www.inkscape.org/) -->

<svg
   xmlns:dc="http://purl.org/dc/elements/1.1/"
   xmlns:cc="http://creativecommons.org/ns#"
   xmlns:rdf="http://www.w3.org/1999/02/22-rdf-syntax-ns#"
   xmlns:svg="http://www.w3.org/2000/svg"
   xmlns="http://www.w3.org/2000/svg"
   xmlns:sodipodi="http://sodipodi.sourceforge.net/DTD/sodipodi-0.dtd"
   xmlns:inkscape="http://www.inkscape.org/namespaces/inkscape"
   version="1.1"
   id="svg10"
   xml:space="preserve"
   width="107.40133"
   height="151.18213"
   viewBox="0 0 107.40133 151.18213"
   sodipodi:docname="javascript-logo.svg"
   inkscape:version="0.92.4 (5da689c313, 2019-01-14)"><metadata
     id="metadata16"><rdf:RDF><cc:Work
         rdf:about=""><dc:format>image/svg+xml</dc:format><dc:type
           rdf:resource="http://purl.org/dc/dcmitype/StillImage" /><dc:title /></cc:Work></rdf:RDF></metadata><defs
     id="defs14"><clipPath
       clipPathUnits="userSpaceOnUse"
       id="clipPath46"><path
         d="M 0,141.732 H 141.732 V 0 H 0 Z"
         id="path44"
         inkscape:connector-curvature="0" /></clipPath></defs><sodipodi:namedview
     pagecolor="#ffffff"
     bordercolor="#666666"
     borderopacity="1"
     objecttolerance="10"
     gridtolerance="10"
     guidetolerance="10"
     inkscape:pageopacity="0"
     inkscape:pageshadow="2"
     inkscape:window-width="1920"
     inkscape:window-height="1057"
     id="namedview12"
     showgrid="false"
     inkscape:zoom="3.2104481"
     inkscape:cx="34.367067"
     inkscape:cy="70.610539"
     inkscape:window-x="-8"
     inkscape:window-y="-8"
     inkscape:window-maximized="1"
     inkscape:current-layer="g71" /><g
     inkscape:groupmode="layer"
     id="layer1"
     inkscape:label="Background"
     transform="translate(-0.48126808,-4.6041333)" /><g
     id="g18"
     inkscape:groupmode="layer"
     inkscape:label="JavaScript Logo"
     transform="matrix(1.3333333,0,0,-1.3333333,-41.268734,165.47452)"
     style="display:inline"><g
       id="g71"
       transform="translate(0.36095156,-3.4531049)"><g
         transform="translate(111.1416,105.3364)"
         id="g20"
         style="fill:#593c8f;fill-opacity:1"><path
           inkscape:connector-curvature="0"
           id="path22"
           style="fill:#593c8f;fill-opacity:1;fill-rule:nonzero;stroke:none"
           d="m 0,0 h -40.275 -40.276 l 7.548,-81.885 32.728,-9.279 32.715,9.279 z" /></g><g
         transform="translate(70.8662,98.666)"
         id="g24"
         style="fill:#684d99;fill-opacity:1"><path
           inkscape:connector-curvature="0"
           id="path26"
           style="fill:#684d99;fill-opacity:1;fill-rule:nonzero;stroke:none"
           d="M 0,0 V -77.559 L 26.502,-70.046 32.956,0 Z" /></g><g
         transform="translate(91.9512,88.6182)"
         id="g28"
         style="fill:#eff5ee;fill-opacity:1"><path
           inkscape:connector-curvature="0"
           id="path30"
           style="fill:#eff5ee;fill-opacity:1;fill-rule:nonzero;stroke:none"
           d="m 0,0 h -40.763 l -2.833,-30.66 0.06,0.192 H -8.91 l -1.13,-12.969 -11.045,-3.184 -11.214,3.232 -0.673,7.849 h -10.18 l 1.455,-15.685 20.612,-5.853 20.612,5.853 2.837,30.781 h -36.742 l 0.468,10.264 h 25.503 l 0.375,-5.875 H 2.239 Z" /></g><g
         transform="translate(58.9795,53.0781)"
         id="g32"
         style="fill:#d9ded8;fill-opacity:1"><path
           inkscape:connector-curvature="0"
           id="path34"
           style="fill:#d9ded8;fill-opacity:1;fill-rule:nonzero;stroke:none"
           d="m 0,0 h -10.18 l 1.454,-15.685 20.613,-5.84 v 10.444 L 0.673,-7.849 Z M 11.887,35.54 H -7.792 l -2.833,-30.66 0.061,0.192 H 11.887 V 15.096 H 0.011 L 0.479,25.36 h 11.408 z" /></g><g
         id="g867"
         style="fill:#593c8f;fill-opacity:1"><g
           style="fill:#593c8f;fill-opacity:1"
           id="g36"
           transform="translate(63.0278,117.415)"><path
             d="M 0,0 H -7.163 V -5.144 H 0 3.835 5.133 V 10.144 H 0 Z"
             style="fill:#593c8f;fill-opacity:1;fill-rule:nonzero;stroke:none"
             id="path38"
             inkscape:connector-curvature="0" /></g><g
           style="fill:#593c8f;fill-opacity:1"
           id="g40"><g
             style="fill:#593c8f;fill-opacity:1"
             id="g42"
             clip-path="url(#clipPath46)"><g
               style="fill:#593c8f;fill-opacity:1"
               id="g48"
               transform="translate(85.8682,127.4814)"><path
                 d="m 0,0 h -12.494 v -5.354 c 1.67,-1.671 2.543,-2.471 4.961,-4.889 -1.414,0 -4.961,-0.005 -4.961,-0.005 v -4.884 H 0 v 4.885 l -4.99,4.893 H 0 Z"
                 style="fill:#593c8f;fill-opacity:1;fill-rule:nonzero;stroke:none"
                 id="path50"
                 inkscape:connector-curvature="0" /></g></g></g></g></g></g></svg>