<?xml version="1.0" encoding="UTF-8" standalone="no"?>
<!-- Created with Inkscape (http://www.inkscape.org/) -->

<svg
   xmlns:dc="http://purl.org/dc/elements/1.1/"
   xmlns:cc="http://creativecommons.org/ns#"
   xmlns:rdf="http://www.w3.org/1999/02/22-rdf-syntax-ns#"
   xmlns:svg="http://www.w3.org/2000/svg"
   xmlns="http://www.w3.org/2000/svg"
   xmlns:sodipodi="http://sodipodi.sourceforge.net/DTD/sodipodi-0.dtd"
   xmlns:inkscape="http://www.inkscape.org/namespaces/inkscape"
   version="1.1"
   id="svg10"
   xml:space="preserve"
   width="42.011959"
   height="42.011959"
   viewBox="0 0 42.01196 42.011958"
   sodipodi:docname="node-js-logo.svg"
   inkscape:version="0.92.4 (5da689c313, 2019-01-14)"><metadata
     id="metadata16"><rdf:RDF><cc:Work
         rdf:about=""><dc:format>image/svg+xml</dc:format><dc:type
           rdf:resource="http://purl.org/dc/dcmitype/StillImage" /><dc:title></dc:title></cc:Work></rdf:RDF></metadata><defs
     id="defs14"><linearGradient
       gradientUnits="userSpaceOnUse"
       gradientTransform="matrix(97.417,0,0,97.417,192.862,279.652)"
       x2="0.98400003"
       x1="0.043000001"
       id="linearGradient6534"><stop
         id="stop6524"
         stop-color="#6BBF47"
         offset="0.16"
         style="stop-color:#684d99;stop-opacity:1" /><stop
         id="stop6528"
         stop-color="#75AC64"
         offset="0.47"
         style="stop-color:#593c8f;stop-opacity:1" /><stop
         style="stop-color:#493276;stop-opacity:1"
         id="stop6532"
         stop-color="#3E863D"
         offset="0.9" /></linearGradient><linearGradient
       id="linearGradient6522"
       x1="0.043000001"
       x2="0.98400003"
       gradientTransform="matrix(97.417,0,0,97.417,192.862,279.652)"
       gradientUnits="userSpaceOnUse"><stop
         offset="0.16"
         stop-color="#6BBF47"
         id="stop6512" /><stop
         offset="0.38"
         stop-color="#79B461"
         id="stop6514" /><stop
         offset="0.47"
         stop-color="#75AC64"
         id="stop6516" /><stop
         offset="0.7"
         stop-color="#659E5A"
         id="stop6518"
         style="stop-color:#5c3f90;stop-opacity:1" /><stop
         offset="0.9"
         stop-color="#3E863D"
         id="stop6520"
         style="stop-color:#493276;stop-opacity:1" /></linearGradient><linearGradient
       id="f"
       x1="0.043000001"
       x2="0.98400003"
       gradientTransform="matrix(97.417,0,0,97.417,192.862,279.652)"
       gradientUnits="userSpaceOnUse"><stop
         offset=".16"
         stop-color="#6BBF47"
         id="stop6465" /><stop
         offset=".38"
         stop-color="#79B461"
         id="stop6467" /><stop
         offset=".47"
         stop-color="#75AC64"
         id="stop6469" /><stop
         offset=".7"
         stop-color="#659E5A"
         id="stop6471" /><stop
         offset=".9"
         stop-color="#3E863D"
         id="stop6473" /></linearGradient><clipPath
       clipPathUnits="userSpaceOnUse"
       id="clipPath46"><path
         d="M 0,141.732 H 141.732 V 0 H 0 Z"
         id="path44"
         inkscape:connector-curvature="0" /></clipPath><clipPath
       id="a"><path
         id="path6363"
         d="m 239.03,226.605 -42.13,24.317 c -1.578,0.91 -2.546,2.59 -2.546,4.406 v 48.668 c 0,1.817 0.968,3.496 2.546,4.406 l 42.133,24.336 c 1.575,0.907 3.517,0.907 5.09,0 l 42.126,-24.336 c 1.57,-0.91 2.54,-2.59 2.54,-4.406 v -48.668 c 0,-1.816 -0.97,-3.496 -2.55,-4.406 l -42.12,-24.317 c -0.79,-0.453 -1.67,-0.68 -2.55,-0.68 -0.88,0 -1.76,0.227 -2.55,0.68"
         inkscape:connector-curvature="0" /></clipPath><linearGradient
       gradientUnits="userSpaceOnUse"
       gradientTransform="matrix(-38.064915,77.652126,-77.652126,-38.064915,258.72325,244.62943)"
       x2="1.251"
       x1="-0.34799999"
       id="b"><stop
         id="stop6366"
         stop-color="#3E863D"
         offset=".3" /><stop
         id="stop6368"
         stop-color="#55934F"
         offset=".5" /><stop
         id="stop6370"
         stop-color="#5AAD45"
         offset=".8" /></linearGradient><clipPath
       id="c"><path
         id="path6373"
         d="m 195.398,307.086 c 0.403,0.523 0.907,0.976 1.5,1.316 l 36.14,20.875 6.02,3.46 c 0.9,0.52 1.926,0.74 2.934,0.665 0.336,-0.027 0.672,-0.09 1,-0.183 l 44.434,-81.36 c -0.34,-0.37 -0.738,-0.68 -1.184,-0.94 l -27.586,-15.93 -14.582,-8.39 c -0.414,-0.24 -0.863,-0.41 -1.32,-0.53 z m 0,0"
         inkscape:connector-curvature="0" /></clipPath><linearGradient
       gradientUnits="userSpaceOnUse"
       gradientTransform="matrix(106.8057,-78.916731,78.916731,106.8057,235.18824,285.39477)"
       x2="0.58200002"
       x1="-0.456"
       id="d"><stop
         id="stop6376"
         stop-color="#3E863D"
         offset=".57" /><stop
         id="stop6378"
         stop-color="#619857"
         offset=".72" /><stop
         id="stop6380"
         stop-color="#76AC64"
         offset="1" /></linearGradient><clipPath
       id="e"><path
         id="path6383"
         d="m 241.066,225.953 c -0.707,0.07 -1.398,0.29 -2.035,0.652 l -42.01,24.247 45.3,82.51 c 0.63,-0.09 1.25,-0.3 1.81,-0.624 l 42.13,-24.336 c 1.3,-0.754 2.19,-2.03 2.46,-3.476 l -46.18,-78.89 c -0.34,-0.067 -0.68,-0.102 -1.03,-0.102 -0.14,0 -0.28,0.007 -0.42,0.02"
         inkscape:connector-curvature="0" /></clipPath><linearGradient
       gradientUnits="userSpaceOnUse"
       gradientTransform="matrix(97.417,0,0,97.417,192.862,279.652)"
       x2="0.98400003"
       x1="0.043000001"
       id="f-4"><stop
         id="stop6386"
         stop-color="#6BBF47"
         offset="0.16" /><stop
         id="stop6388"
         stop-color="#79B461"
         offset="0.38" /><stop
         id="stop6390"
         stop-color="#75AC64"
         offset="0.47" /><stop
         id="stop6392"
         stop-color="#659E5A"
         offset="0.7" /><stop
         id="stop6394"
         stop-color="#3E863D"
         offset="0.9" /></linearGradient></defs><sodipodi:namedview
     pagecolor="#ffffff"
     bordercolor="#666666"
     borderopacity="1"
     objecttolerance="10"
     gridtolerance="10"
     guidetolerance="10"
     inkscape:pageopacity="0"
     inkscape:pageshadow="2"
     inkscape:window-width="1920"
     inkscape:window-height="1057"
     id="namedview12"
     showgrid="false"
     inkscape:zoom="4.5402592"
     inkscape:cx="29.690779"
     inkscape:cy="26.071245"
     inkscape:window-x="1072"
     inkscape:window-y="827"
     inkscape:window-maximized="1"
     inkscape:current-layer="g6554"
     inkscape:snap-to-guides="true" /><g
     inkscape:groupmode="layer"
     id="layer1"
     inkscape:label="Background"
     transform="translate(-35.541119,-90.384326)" /><g
     inkscape:groupmode="layer"
     id="layer5"
     inkscape:label="Node JS Logo"
     transform="translate(-74.275247,-117.47935)"><g
       id="g6455"
       transform="matrix(0.38534773,0,0,0.38534773,8.6609329,55.08905)"><g
         id="g6554"
         style="fill:#593c8f;fill-opacity:1"><g
           id="g941"
           transform="translate(6.1567513)"><path
             id="path6399"
             d="m 218.647,270.93 c -1.46,0 -2.91,-0.383 -4.19,-1.12 l -13.337,-7.896 c -1.992,-1.114 -1.02,-1.508 -0.363,-1.735 2.656,-0.93 3.195,-1.14 6.03,-2.75 0.298,-0.17 0.688,-0.11 0.993,0.07 l 10.246,6.08 c 0.37,0.2 0.895,0.2 1.238,0 l 39.95,-23.06 c 0.37,-0.21 0.61,-0.64 0.61,-1.08 v -46.1 c 0,-0.46 -0.24,-0.87 -0.618,-1.1 l -39.934,-23.04 c -0.37,-0.22 -0.86,-0.22 -1.23,0 l -39.926,23.04 c -0.387,0.22 -0.633,0.65 -0.633,1.09 v 46.1 c 0,0.44 0.24,0.86 0.62,1.07 l 10.94,6.32 c 5.94,2.97 9.57,-0.53 9.57,-4.05 v -45.5 c 0,-0.65 0.51,-1.15 1.16,-1.15 h 5.06 c 0.63,0 1.15,0.5 1.15,1.15 v 45.52 c 0,7.92 -4.32,12.47 -11.83,12.47 -2.31,0 -4.13,0 -9.21,-2.5 l -10.48,-6.04 c -2.59,-1.5 -4.19,-4.3 -4.19,-7.29 v -46.1 c 0,-3 1.6,-5.8 4.19,-7.28 l 39.99,-23.07 c 2.53,-1.43 5.89,-1.43 8.4,0 l 39.94,23.08 c 2.58,1.49 4.19,4.28 4.19,7.28 v 46.1 c 0,2.99 -1.61,5.78 -4.19,7.28 l -39.94,23.07 c -1.28,0.74 -2.73,1.12 -4.21,1.12"
             inkscape:connector-curvature="0"
             style="fill:#593c8f;fill-opacity:1" /><path
             sodipodi:nodetypes="cssscsscssccsscsscsc"
             id="path6401"
             d="m 230.987,239.164 c -17.48,0 -21.145,-8.024 -21.145,-14.754 0,-0.64 0.516,-1.15 1.157,-1.15 h 5.16 c 0.57,0 1.05,0.415 1.14,0.978 0.78,5.258 3.1,7.91 13.67,7.91 8.42,0 12,-1.902 12,-6.367 0,-2.57 -1.02,-4.48 -14.1,-5.76 -10.94,-1.08 -17.7,-3.49 -17.7,-12.24 0,-8.06 6.8,-12.86 18.19,-12.86 12.79,0 19.13,4.44 19.93,13.98 0.03,0.33 -0.09,0.65 -0.31,0.89 -0.22,0.23 -0.53,0.37 -0.85,0.37 h -5.19 c -0.54,0 -1.01,-0.38 -1.12,-0.9 -1.25,-5.53 -4.27,-7.3 -12.48,-7.3 -9.19,0 -10.26,3.2 -10.26,5.6 0,2.91 1.26,3.76 13.66,5.4 12.28,1.63 18.11,3.93 18.11,12.56 0,8.7 -7.26,13.69 -19.92,13.69"
             inkscape:connector-curvature="0"
             style="fill:#593c8f;fill-opacity:1" /></g></g></g></g></svg>