<?xml version="1.0" encoding="UTF-8" standalone="no"?>
<svg
   xmlns:dc="http://purl.org/dc/elements/1.1/"
   xmlns:cc="http://creativecommons.org/ns#"
   xmlns:rdf="http://www.w3.org/1999/02/22-rdf-syntax-ns#"
   xmlns:svg="http://www.w3.org/2000/svg"
   xmlns="http://www.w3.org/2000/svg"
   xmlns:sodipodi="http://sodipodi.sourceforge.net/DTD/sodipodi-0.dtd"
   xmlns:inkscape="http://www.inkscape.org/namespaces/inkscape"
   version="1.1"
   width="21.219999"
   height="21.219999"
   viewBox="0 0 21.219999 21.219999"
   id="svg4575"
   sodipodi:docname="pencil-ruler.svg"
   inkscape:version="0.92.4 (5da689c313, 2019-01-14)">
  <metadata
     id="metadata4581">
    <rdf:RDF>
      <cc:Work
         rdf:about="">
        <dc:format>image/svg+xml</dc:format>
        <dc:type
           rdf:resource="http://purl.org/dc/dcmitype/StillImage" />
      </cc:Work>
    </rdf:RDF>
  </metadata>
  <defs
     id="defs4579" />
  <sodipodi:namedview
     pagecolor="#ffffff"
     bordercolor="#666666"
     borderopacity="1"
     objecttolerance="10"
     gridtolerance="10"
     guidetolerance="10"
     inkscape:pageopacity="0"
     inkscape:pageshadow="2"
     inkscape:window-width="1920"
     inkscape:window-height="1057"
     id="namedview4577"
     showgrid="false"
     inkscape:zoom="9.8333333"
     inkscape:cx="10.61"
     inkscape:cy="10.61"
     inkscape:window-x="1072"
     inkscape:window-y="827"
     inkscape:window-maximized="1"
     inkscape:current-layer="svg4575" />
  <path
     d="m 1.61,15.86 v 3.75 H 5.36 L 16.42,8.54 12.67,4.79 1.61,15.86 m 19.61,1.11 -4.25,4.25 -5.2,-5.2 1.77,-1.77 1,1 2.47,-2.48 1.42,1.42 -1.46,1.42 1.06,1 1.42,-1.4 1.77,1.76 M 5.22,9.44 0,4.25 4.25,0 6.01,1.77 3.54,4.25 4.61,5.31 7.07,2.83 8.49,4.25 7.07,5.66 l 1,1 -2.85,2.78 m 14.1,-3.83 c 0.39,-0.39 0.39,-1 0,-1.41 L 16.98,1.9 c -0.37,-0.39 -1.02,-0.39 -1.41,0 l -1.84,1.83 3.75,3.75 z"
     id="path4573"
     inkscape:connector-curvature="0"
     style="fill:#ffffff;fill-opacity:1" />
</svg>
