<?xml version="1.0" encoding="UTF-8" standalone="no"?>
<!-- Created with Inkscape (http://www.inkscape.org/) -->

<svg
   xmlns:dc="http://purl.org/dc/elements/1.1/"
   xmlns:cc="http://creativecommons.org/ns#"
   xmlns:rdf="http://www.w3.org/1999/02/22-rdf-syntax-ns#"
   xmlns:svg="http://www.w3.org/2000/svg"
   xmlns="http://www.w3.org/2000/svg"
   xmlns:sodipodi="http://sodipodi.sourceforge.net/DTD/sodipodi-0.dtd"
   xmlns:inkscape="http://www.inkscape.org/namespaces/inkscape"
   version="1.1"
   id="svg10"
   xml:space="preserve"
   width="126.30072"
   height="123.1432"
   viewBox="0 0 126.30072 123.1432"
   sodipodi:docname="photoshop-logo.svg"
   inkscape:version="0.92.4 (5da689c313, 2019-01-14)"><metadata
     id="metadata16"><rdf:RDF><cc:Work
         rdf:about=""><dc:format>image/svg+xml</dc:format><dc:type
           rdf:resource="http://purl.org/dc/dcmitype/StillImage" /><dc:title /></cc:Work></rdf:RDF></metadata><defs
     id="defs14"><clipPath
       clipPathUnits="userSpaceOnUse"
       id="clipPath46"><path
         d="M 0,141.732 H 141.732 V 0 H 0 Z"
         id="path44"
         inkscape:connector-curvature="0" /></clipPath><radialGradient
       gradientUnits="userSpaceOnUse"
       r="143.42999"
       cy="81.290001"
       cx="97.709999"
       id="New_Gradient_Swatch_16"><stop
         id="stop1026"
         stop-opacity="0.85"
         stop-color="#360100"
         offset="0"
         style="stop-color:#593c8f;stop-opacity:0.8509804" /><stop
         id="stop1028"
         stop-color="#360100"
         offset="0.77"
         style="stop-color:#593c8f;stop-opacity:1" /></radialGradient></defs><sodipodi:namedview
     pagecolor="#ffffff"
     bordercolor="#666666"
     borderopacity="1"
     objecttolerance="10"
     gridtolerance="10"
     guidetolerance="10"
     inkscape:pageopacity="0"
     inkscape:pageshadow="2"
     inkscape:window-width="1920"
     inkscape:window-height="1057"
     id="namedview12"
     showgrid="false"
     inkscape:zoom="6.4208962"
     inkscape:cx="58.929483"
     inkscape:cy="60.781557"
     inkscape:window-x="1072"
     inkscape:window-y="827"
     inkscape:window-maximized="1"
     inkscape:current-layer="layer1" /><g
     inkscape:groupmode="layer"
     id="layer1"
     inkscape:label="Background"
     transform="translate(8.968425,-18.623598)"
     style="display:inline" /><g
     inkscape:groupmode="layer"
     id="layer3"
     inkscape:label="Photoshop Logo"
     style="display:inline"
     transform="translate(-29.765703,-45.718622)"><g
       id="g983"
       transform="matrix(0.52625299,0,0,0.52625299,29.765703,45.718622)"><path
         id="path969"
         d="M 10,10 H 230 V 224 H 10 Z"
         class="st0"
         inkscape:connector-curvature="0"
         style="fill:#593c8f;fill-opacity:1" /><path
         id="path971"
         d="M 0,0 V 234 H 240 V 0 Z M 10,10 H 230 V 224 H 10 Z m 48,44.8 c 0,-0.7 1.4,-1.2 2.2,-1.2 6.4,-0.3 15.9,-0.5 25.8,-0.5 27.7,0 38.5,15.2 38.5,34.7 0,25.4 -18.4,36.3 -41,36.3 -3.8,0 -5.1,-0.2 -7.8,-0.2 v 38.4 c 0,0.8 -0.3,1.2 -1.2,1.2 H 59.2 c -0.8,0 -1.2,-0.3 -1.2,-1.2 z m 17.8,53.1 c 2.3,0.2 4.1,0.2 8.1,0.2 11.7,0 22.7,-4.1 22.7,-20 0,-12.7 -7.9,-19.1 -21.2,-19.1 -4,0 -7.8,0.2 -9.6,0.3 z m 86,-11.9 c -7.9,0 -10.6,4 -10.6,7.3 0,3.6 1.8,6.1 12.4,11.6 15.7,7.6 20.6,14.9 20.6,25.6 0,16 -12.2,24.6 -28.7,24.6 -8.7,0 -16.2,-1.8 -20.5,-4.3 -0.7,-0.3 -0.8,-0.8 -0.8,-1.6 v -14.7 c 0,-1 0.5,-1.3 1.2,-0.8 6.3,4.1 13.5,5.9 20.1,5.9 7.9,0 11.2,-3.3 11.2,-7.8 0,-3.6 -2.3,-6.8 -12.4,-12 -14.2,-6.8 -20.1,-13.7 -20.1,-25.2 0,-12.9 10.1,-23.6 27.6,-23.6 8.6,0 14.6,1.3 17.9,2.8 0.8,0.5 1,1.3 1,2 v 13.7 c 0,0.8 -0.5,1.3 -1.5,1 C 174.8,97.7 168.3,96 161.8,96 Z"
         class="st1"
         inkscape:connector-curvature="0"
         style="fill:#eef4ed;fill-opacity:1" /></g></g><style
     id="style967"
     type="text/css">
	.st0{fill:#001D26;}
	.st1{fill:#00C8FF;}
</style></svg>